<?xml version="1.0" encoding="UTF-8"?>
<!DOCTYPE svg PUBLIC "-//W3C//DTD SVG 1.1//EN" "http://www.w3.org/Graphics/SVG/1.1/DTD/svg11.dtd">
<svg xmlns="http://www.w3.org/2000/svg" xml:space="preserve" width="22in" height="16in" version="1.1" style="shape-rendering:geometricPrecision; text-rendering:geometricPrecision; image-rendering:optimizeQuality; fill-rule:evenodd; clip-rule:evenodd"
viewBox="0 0 22000 16000"
 xmlns:xlink="http://www.w3.org/1999/xlink"
 xmlns:xodm="http://www.corel.com/coreldraw/odm/2003">
 <defs>
  <style type="text/css">
   <![CDATA[
    .fil2 {fill:#FEFEFE}
    .fil1 {fill:#E4155D}
    .fil0 {fill:#F7AE5B}
   ]]>
  </style>
    <clipPath id="id0">
     <rect x="9286.28" y="5363.2" width="3411.61" height="1861.44"/>
    </clipPath>
    <clipPath id="id1">
     <rect x="9670.77" y="3428.53" width="1367.09" height="1226.72"/>
    </clipPath>
 </defs>
 <g id="Layer_x0020_1">
  <metadata id="CorelCorpID_0Corel-Layer"/>
  <g id="_2111082367840">
   <path class="fil0" d="M13223.31 5413.85c58.69,0 138.31,13.1 187.72,22.65 215.2,41.6 427.99,128.81 606.94,248.91 84.54,56.73 167.52,119.24 239.29,191.02l105.2 109.96c204.09,219.54 358.87,575.12 412.76,873.41 14.59,80.8 14.06,130.64 23.16,192 7.33,49.44 2.42,151.33 2.65,202.72 1.28,293.73 -82.41,519.66 -189.76,771.28 -11.66,27.32 -23.76,43.51 -36.51,68.68 -56.22,110.95 -180.39,292.36 -267.24,378.23 -79.83,78.93 -133.7,133.04 -224.87,200.66 -89.93,66.7 -167.41,111.96 -268.04,162.28 -97.22,48.61 -197.37,87.67 -312.95,117.37 -377.37,96.96 -809.54,63.7 -1145.28,-123.81 -38.24,-21.35 -67.48,-41.15 -102.71,-64.64 -17.52,-11.68 -31.7,-20.79 -48.13,-33.15 -78.09,-58.82 -111.52,-92.35 -178.66,-160.81 -14.4,-14.69 -30.28,-27.96 -42.63,-43.43 -90.25,-113.06 -128.13,-153.22 -203.29,-303.53 -9.97,-19.94 -17.51,-34.09 -27.16,-54.12 -26.97,-56.01 -51.12,-129.39 -69.47,-188.72 -19.62,-63.43 -57.97,-216.27 -57.97,-281.51l1190.55 0 0 -411.19 -1616.08 0c0,324.55 40.24,600.15 138.05,894.71 35.65,107.33 93.43,238.08 151.58,336.12 67,112.95 94.08,155.28 172.66,252.87 11.46,14.24 17.66,20.27 28.76,33.39l55.16 64.37c20.34,22 40.86,40.57 62.2,62.11 102.62,103.55 226.6,183.76 349.87,257.36 235.2,140.41 606.82,217.18 882.53,217.18 373.5,0 633.61,-45.73 960.97,-191.32 190.2,-84.58 399.37,-245.51 546.35,-390.78 14.51,-14.35 18.44,-21.48 31.09,-35.85l152.11 -177.8c120.85,-161.64 119.78,-176.09 207.86,-327.65 91.97,-158.28 173.17,-409.9 209.76,-593.5 118.81,-596.08 13.61,-1225.72 -284.39,-1718.17 -17.71,-29.26 -32.13,-52.54 -49.9,-79.2 -45.15,-67.72 -144.25,-204.44 -199.55,-259.46 -33.84,-33.66 -69.93,-78.56 -96.89,-99.14l-140.72 -122.24c-230.38,-180.96 -421.15,-269.51 -696.56,-350.55 -68.43,-20.14 -141.17,-32.33 -217.98,-45l-240.47 -22.5 0 420.76z"/>
   <path class="fil1" d="M6782.89 7192.49c0,306.28 59.13,621.86 168.7,897.54 92.09,231.69 202.92,397.1 350.37,586.76 132.96,171 386.79,392.15 582.18,488.83 71.72,35.49 97.53,52.88 180.77,86.99l198.43 69.31 217.52 50.23c473.63,80.46 998.61,30.59 1407.85,-221.34 94.03,-57.89 131.04,-91.27 210.38,-153 46.64,-36.29 151.09,-145.1 184.86,-183.3 9.38,-10.6 16.46,-19.96 26.06,-31.32l78.7 -102.99c53.95,-73.01 74.16,-115.02 116.04,-185.18 177.23,-296.87 275.3,-784.53 275.3,-1125.63l0 -81.28 -1616.08 0 0 411.19 1190.54 0c0,68.45 -35.91,212.21 -55.65,279.04 -24.85,84.13 -59.12,170.62 -95.75,243.72 -48.7,97.17 -127.33,216.96 -201.25,300.78 -7.54,8.54 -13.53,13.13 -21.57,21.45 -10.24,10.61 -10.43,13.24 -19.24,23.79 -11.33,13.56 -29.59,31.12 -42.76,43.3 -9.73,9 -11.74,8.85 -21.36,16.89 -8.48,7.09 -13.94,13.45 -21.7,21.34 -94.28,95.91 -237.76,175.54 -359.04,233.84 -132.92,63.89 -362.77,121.13 -557.81,121.13 -191.29,0 -296.49,-4.3 -479.2,-51.57 -299.58,-77.51 -599.04,-256.73 -805.83,-480.3 -10.79,-11.67 -12.32,-17.05 -23.76,-28.83 -11.14,-11.47 -15.78,-15.17 -25.2,-27.39 -15.16,-19.67 -31.51,-37.14 -47.15,-58.04 -104.25,-139.34 -167.77,-242.09 -239.59,-405.89 -44.55,-101.61 -77.28,-199.61 -107.26,-318.28 -95.75,-379.12 -58.11,-829.28 99.19,-1181.28 88.41,-197.86 146.42,-290.55 271.57,-445.62l48.28 -56.91c121.97,-131.87 247.96,-226.22 399.53,-317.66 184.55,-111.33 495.89,-218.98 708.59,-218.98l0 -420.76c-132.95,0 -330.9,36.38 -454.23,66.93 -291.5,72.2 -620.53,254.76 -833.13,467.38l-157.82 167.31c-11.31,12.69 -19.33,22.96 -30.17,36.76 -243.98,310.63 -415.94,698.48 -470.39,1093.1 -5.28,38.28 -12.22,80.32 -14.59,119.29 -4.76,78.03 -14.34,165.56 -14.34,248.62z"/>
   <path class="fil2" d="M9986.37 10343.37c0,134.95 13.54,203.3 68.52,313.99 95.02,191.28 275.02,313.52 484.08,352.65 99.74,18.66 202.56,20.43 303.99,3.49 167.7,-27.99 315.88,-118.64 409.5,-259.88 47.8,-72.11 83.44,-145.78 100.1,-234.59 5.23,-27.9 3.69,-49.25 8.13,-78.06 4.48,-29.11 -2.09,-47.69 -2.09,-78.46l-664.6 0 0 224.72 377.72 0c-5.42,23.27 -38.31,68.37 -53.73,84.94 -24.3,26.12 -45.76,47.59 -76.24,67.19 -30.92,19.89 -61.3,30.47 -101.5,41.95 -146.54,41.84 -334.14,2.64 -451.19,-99.51 -64.31,-56.12 -106.03,-111.28 -131.96,-197.94 -33.98,-113.59 -9.51,-252.89 59.81,-345.43 145.33,-194.04 418.2,-229.27 613.01,-131.35 107.94,54.25 103.61,73.22 160.94,111.6l176.9 -167.35c-54.18,-36.28 -105.2,-109.02 -227.44,-159.84 -257.35,-106.98 -572.49,-99.32 -797.85,71.67 -143.61,108.96 -256.09,285.81 -256.09,480.23z"/>
   <path class="fil2" d="M5759.69 10329.03c0,144.09 3.48,198.03 68.53,328.32 42.78,85.69 101.83,161.44 177.98,218.87 53.81,40.59 92.23,61.14 154.98,88.86 70.54,31.16 166.7,57.2 268.05,57.09 35.54,-0.04 34.56,4.76 67.37,0.96 78.67,-9.12 107.66,2.22 211.65,-32.43 152.61,-50.83 272.34,-144.93 350.39,-290.3 70.9,-132.08 73.29,-194.42 73.29,-337.91l-664.61 0 0 224.72 377.72 0c-5.62,21.05 -39.48,67.55 -53.98,84.68 -118.42,139.91 -342.55,152.05 -494.57,90.93 -48.43,-19.47 -68.04,-30.85 -108.51,-58.83 -35.26,-24.37 -59.29,-53.13 -85.29,-82.06 -94.7,-105.39 -115.8,-291.38 -51.47,-422.11 72.19,-146.69 231.91,-243.73 396.96,-243.73 147.15,0 226.59,25.5 338.61,101.27 36.09,24.41 58.96,52.17 72.58,61.29 12.82,-3.43 75.95,-63.85 89.66,-77.69 29.41,-29.69 69.35,-58.16 87.25,-84.88 -18.59,-27.76 -72.97,-71.48 -102.39,-93.65 -38.08,-28.7 -78.03,-51.78 -123.93,-72.11 -229.96,-101.89 -524.21,-93.52 -743.4,37.54 -31.31,18.71 -67.78,44.68 -92.91,69.66 -15.21,15.13 -26.87,19.54 -40.49,36.01 -50.28,60.83 -58.5,68.26 -102.74,141.11 -32.28,53.15 -70.76,169.91 -70.76,254.37z"/>
   <path class="fil2" d="M12104.48 9764.84l0 1228.79 253.41 0 0 -808.04c3.4,3.91 4.55,5.08 8.57,10.56 3.76,5.12 6.08,9.01 9.59,14.31l477.15 684.71c9.8,14.16 60.35,98.45 78.45,98.45l234.29 0 0 -1228.79c0,-11.02 -3.33,-14.35 -14.34,-14.35l-239.06 0 0 808.04c-18.26,-12.22 -155.01,-218.53 -178.93,-251.39l-143.44 -205.59c-70.12,-96.34 -142.9,-210.29 -212.41,-303.97 -9.46,-12.76 -27.89,-47.09 -43.76,-47.09l-215.16 0c-11.02,0 -14.34,3.33 -14.34,14.35z"/>
   <path class="fil2" d="M13467.16 10993.63l253.41 0 0 -803.26 419.86 598.57c10.93,16.15 134.82,186.97 139.56,204.69l243.85 0 0 -1243.14 -239.06 0c-23.08,0 -14.35,42.09 -14.35,86.06l0 721.98c-3.82,-4.39 -4.17,-4.73 -8.52,-10.61l-487.84 -697.92c-11.33,-16.68 -61.74,-99.51 -77.4,-99.51l-229.5 0 0 1243.14z"/>
   <path class="fil0" d="M9288.29 4978.75c0,135.16 -5.48,226.18 128.48,254.03 91.6,19.05 221.19,4.16 325.75,4.16 237.06,0 464.55,9.56 702.85,9.56 61.93,0 109.54,-4.89 167.34,-4.78 62,0.11 110.71,-9.56 167.34,-9.56l5.48 -85.36c6.43,-57.62 6.77,-328.04 -1.61,-382.29 -6.17,-39.93 -33.54,-39.47 -80.34,-39.2l-478.16 0.04c-84.23,0 -152.77,-4.78 -234.28,-4.78 -79.23,-0.01 -150.63,4.78 -234.28,4.78 -39.26,0 -80.72,-1.33 -119.69,-0.16 -24.07,0.72 -26.47,4.81 -52.25,5.13l-171.52 10.17c-36.92,3.92 -66.63,7.2 -84.98,34.55 -26.83,39.98 -40.13,136.91 -40.13,203.72z"/>
   <path class="fil1" d="M11196.03 4739.69l0 487.69c41.68,0 68.65,5.04 105.08,4.89l989.84 -0.11c136.6,0 319.06,34.39 374.1,-56.22 30.76,-50.63 17.97,-121.9 17.97,-192.41 0,-151.3 38.83,-253.54 -176.91,-253.41 -146.63,0.09 -293.37,0.49 -439.99,-0.11 -36.46,-0.15 -63.37,4.92 -105.08,4.9l-765.01 4.78z"/>
   <polygon class="fil2" points="15341.43,10993.63 16063.41,10993.63 16063.41,10759.35 15594.83,10759.35 15594.83,10439 16063.41,10439 16063.41,10204.72 15594.83,10204.72 15594.83,9984.78 16063.41,9984.78 16063.41,9750.49 15341.43,9750.49 "/>
   <path class="fil2" d="M7877.81 9764.84l0 1228.79 253.41 0 0 -554.63 392.07 0c11.02,0 14.34,-3.33 14.34,-14.34l0 -205.6c0,-11.02 -3.33,-14.34 -14.34,-14.34l-392.07 0 0 -219.94 392.07 0c11.02,0 14.34,-3.33 14.34,-14.34l0 -205.6c0,-11.02 -3.33,-14.35 -14.34,-14.35l-631.13 0c-11.02,0 -14.34,3.33 -14.34,14.35z"/>
   <path class="fil2" d="M8628.47 9764.84l0 224.72 234.29 0 0 1004.07 260.58 0 -2.39 -1004.07 239.06 0 0 -239.06 -717.2 0c-11.01,0 -14.34,3.33 -14.34,14.35z"/>
   <path class="fil2" d="M14088.72 12260.68l1.43 1.43c-0.09,-0.09 -1.9,-0.95 -1.43,-1.43zm363.38 -9.56l-2.63 10.28 2.63 -10.28zm1639.99 -272.54c14.84,-3.46 13.85,-6.11 28.69,-9.56 -1.12,13.5 0.11,19.13 -14.34,19.13 -13.47,0 -8.85,-2.07 -14.35,-9.57zm-229.5 9.57c4.8,-17.97 13.8,-21.23 28.69,-14.35 -9.78,18.48 -1.06,14.35 -28.69,14.35zm-1687.81 -33.47zm956.27 -9.56l-956.27 9.56zm956.27 -9.56zm-597.67 4.78l597.67 -4.78zm-597.67 4.78zm148.22 14.34l-148.22 -14.34zm148.22 14.34c17.84,-33.72 16.63,-26.9 52.59,-23.9 -11.5,17.19 -23.03,23.9 -52.59,23.9zm-301.22 -23.9c-7.56,6.57 -42.2,39.22 -50.7,21.39 -5.92,-12.43 6.58,-19.34 16.11,-22.67 13.05,-4.56 18.02,-0.09 34.6,1.29zm1195.33 -43.03c-6.98,0 -11.37,-8.72 -11.4,-13.54 -0.07,-8.19 7.5,-13.91 12.19,-18.84 15.62,-16.43 21.63,-25 47.02,-25 36.95,0 -2.75,57.38 -47.81,57.38zm-1663.89 52.59c0,-121.3 262.99,-193.53 91.55,-56.67 -21.13,16.87 -37.98,36.53 -62.83,47.15 -10.87,4.64 -18.32,4.53 -28.72,9.52zm262.96 4.78c-4.02,15.08 -16.48,30.75 -23.7,43.24 -33.5,57.96 -117.51,234.74 -109.86,300.48 3.19,27.37 8.63,33.12 28.37,43.57 14.41,-9.65 35.27,-50.2 43.03,-66.94l35.07 -74.91c25.97,-51.94 48.56,-98.47 76.43,-148.28 56.78,-101.44 88.51,-176.57 167.83,-276.83 108.39,-137 169.98,-98.75 46.8,99.4 -28.41,45.72 -38.74,42.66 -67.83,42.14 -41.08,-0.73 -65.5,6.83 -71.06,39.39 -5.94,34.81 14.12,56.21 55.96,51.11 37.83,-4.6 48.63,-26.92 72.35,-42.81 19.19,1.6 30.28,8.26 56.29,3.83 19.74,-3.37 29.56,-13.66 48.9,-18.17l-47.81 90.85c-26.27,52.56 -142.32,278.54 -57.38,301.22 11.3,-8.28 41.36,-67.46 49.47,-84.41l89.25 -178.51c52.09,-100.06 186.71,-378.62 291.6,-387.35 17.87,76.69 -77.43,209.16 -91.8,218.99 -24.08,16.48 -69.23,-5.01 -93.82,16.15 -47.94,41.28 4.35,118.96 83.96,60.06 76.48,-56.59 10.57,24.67 154.24,-51.35 -1.27,15.27 -6.36,19.92 -4.62,37.77 2.37,24.4 18.1,35.06 42.47,34.24 11.55,-0.38 14.19,-1.84 23.91,-5.44 49.25,-18.25 77.97,-46.46 115.16,-71.35 -2.83,33.89 -9.72,28.57 9.56,57.38 59.46,0 91.98,-49 140.07,-89.44 51.17,-43.02 73.94,-70.85 132.46,-101.82 -0.56,25.23 -15.56,45.26 -25.49,65.35 -32.9,66.54 -97.99,125.22 -70.13,183.28 42.26,9.84 70.28,-11.74 113.83,-39.18l96.55 -66.01c0,26.46 -3.02,56.2 39.87,74.88 57.93,25.22 128.58,-13.75 173.42,-43.29l64.03 -55.5c20.99,14.05 10.51,16.21 41.86,25.08 16.36,4.63 32.74,12.7 53.77,13.17 -8.74,32.71 -24.5,5.4 -14.34,47.81 25.77,6 46.19,7.57 70.15,-11.13 14.29,-11.15 6.91,-5.87 11.01,-22.46 4.58,-18.52 -5.72,-8.74 13.13,-20.34 0.91,-0.56 2.26,-1.06 3.2,-1.58l60.28 -30.56c10.35,28.6 58.74,27.63 90.85,43.03 -16.17,22.06 -19.13,-1.54 -19.13,38.25 24.2,12.81 47.36,15.55 73.92,-7.36 15.07,-13 6.97,-8.6 12.53,-25.72 7.17,-22.1 -4.74,-6.54 41.1,-30.62 17.38,-9.13 29.91,-17.15 39.8,-31.92 -58.53,1.3 -54.43,57.79 -122.9,27.33 -27.02,-12.02 -62.98,-11.73 -77.92,-32.11 6.03,-22.57 6.51,-8.48 39.47,-41.81l56.07 -63.46c29.92,-39.27 43.12,-32.74 43.12,-81.2 -45.19,0 -44.44,0.74 -71.81,19.04l-53.76 41.86c-34.71,37.84 -56.12,73.67 -56.12,130.36 -24.78,6.62 -64.26,42.81 -92.23,35.16l-50.19 -17.04c-17.29,-4.73 -33.24,-9.87 -48.82,-18.11 5.07,-18.99 23.1,-31.98 37.11,-44.17l95.75 -109.85c9.07,-15.22 5.8,-15.2 5.8,-37.24 -58.98,0 -82.42,23.13 -127.94,68.09 -72.6,71.71 -33.68,106.39 -67.72,133.09 -215.22,168.77 -245.34,38.05 -205.96,9.19 3.85,10.64 1.86,7.54 10.76,13.28 59.7,38.53 151.78,-112.57 79.07,-127.42 -43.68,-8.92 -99.43,42.81 -120.5,73.91 -39.57,58.41 -250.25,202.53 -178.2,70.43l71.24 -125.06c9.94,-30.4 2.19,-60.26 -41.93,-46.77l-86.28 57.48c-12.09,9.08 -16.12,16 -27.23,25.36 -22.86,19.26 -91.34,76.46 -118.11,82.7 1.69,-20.37 21.69,-55.98 33.13,-67.28 22.7,-22.44 44.66,-23.24 24.25,-61.81 -33.31,0 -33.8,6.62 -60.79,39.62 -21.46,26.25 -8.22,29.65 -43.62,56.79 -17.38,13.33 -40.46,28.31 -60.09,40.32 -11.65,7.13 -23.06,13.03 -36.45,16.98 -16.85,4.96 -26.75,7.88 -29.19,-14.7 -4.77,-44.21 23.07,-49.41 31.53,-70.96 14.74,-37.6 -29.02,-29.53 -48.12,-3.99 -24.69,33.01 -85.19,72.05 -135.78,60.26 4.68,-17.52 24.04,-37.29 35.02,-55.82 13.92,-23.47 18.89,-34.2 30.38,-60.46 32.9,-75.21 29.63,-231.31 -83.37,-116.84 -61.75,62.54 -60.96,71.36 -110.4,138.23 -17.31,23.4 -37.37,50.89 -51.7,77.4 -48.39,89.53 -80.48,142.07 -130.72,242.22 -7.49,14.93 -12.93,25.37 -19.79,42.37l-15.3 32.52c-5.76,9.52 -2.38,4.79 -7.94,11.19 1.43,-64.27 71.88,-191.11 102,-251.82l51.29 -92.16c12.47,-20.37 20.11,-22.14 14.06,-48.09 -33.36,2.78 -44.76,38.9 -73.09,56 -28.24,17.06 -61.62,34 -99.04,25.28 21.76,-41.13 47.9,-70.37 68.5,-117.98 10.3,-23.81 10.49,-50.69 15.03,-80.82 5.5,-36.43 -1.9,-51.8 -16.59,-73.74 -34,0 -44.73,6.2 -65.89,24.95l-47.61 48.02c-89.31,91.74 -231.8,346.4 -284.73,470.72 -4.1,9.64 -5.07,14.17 -9.62,23.85l-12.91 20.57c7.78,-93.52 113.48,-278.42 163.95,-362.33 17.72,-29.46 9.45,-59.43 -41.88,1.49l-45.18 36.1c-32.42,19.01 -46.83,17.25 -86.44,13.96 -6.33,-27.16 -7.13,-56.19 -1.49,-82.78 6.38,-30.04 18.02,-42.92 -4.41,-64.29 -39.57,-37.7 -111.35,13.55 -133.52,31.56 -34.35,27.91 -55.98,63.57 -90.7,90.98 -35.44,27.97 -69.05,52.73 -106.59,79.89l-83.15 50.72c-62.19,40.67 -132.72,51.43 -89.08,-55.61 26.23,-64.35 63.89,-119.55 101.52,-175.8 13.86,-20.73 27.89,-34.9 39.25,-56.38 33.07,0 57.02,4.78 95.63,4.78 6.37,-9.51 8.7,-13.25 14.34,-23.9 -23.92,-25.22 -38.9,-23.91 -86.06,-23.91 50.35,-95.15 220.22,-314.13 288.29,-395.43 39.94,-47.7 105.91,-81.3 79.87,-130.51 -38.15,0 -55.29,23.74 -75.4,44.13 -90.74,92.01 -237.32,305.41 -309.02,412.96 -17.82,26.74 -33.92,48.61 -50.68,73.63 -143.26,0 -259.28,28.69 -344.25,28.69l133.92 -195.98c40.87,-61.56 96.48,-146.2 115.13,-219.96 31.48,-124.57 -168.59,-150.05 -298.16,-15.67 -104.43,108.31 29.14,143.86 15.78,92.28 -7.84,-30.25 -8.11,-43.53 10.66,-65.84 66.89,-79.55 197.59,-116.41 223.87,-63.54 25.26,50.82 -93.44,221.27 -130.48,276.46l-67.94 99.4c-22.95,31.73 -44.08,67.68 -70.7,96.64 -12.22,13.3 -10.27,9.34 -32.1,10.93 -20.29,1.48 -19.74,3.98 -38.63,4.4 -8.1,-15.3 -10.71,-16.13 -19.12,-28.69 -43.77,0 -134.39,12.87 -157.78,47.81 10.36,44.47 53.9,33.05 97.72,26.01 23.61,-3.79 104.56,-15.05 117.44,-21.22 -6.64,24.87 -182.84,261.57 -221.11,300.06 -21.14,21.26 -38.06,49.55 -65.89,63.2 -14.08,6.9 -6.47,2.18 -22.71,5.98 -3.17,0.74 -7.7,1.51 -11.26,3.07 -17.89,7.91 -30.7,33.76 -28.06,57.46 2.08,18.72 13.52,30.23 29.91,33.45 41.65,8.17 89.2,-58.83 111.52,-87.51 19.88,-25.56 39.8,-44.87 58.75,-70.35 18.99,-25.54 35.15,-48.54 54.56,-74.54l135.32 -189.81c31.4,-43.41 26.81,-56.76 135.91,-60.12 26.94,-0.83 33.8,-4.26 57.22,-4.95l129.41 -4.46c28.86,-0 34.69,-4.95 62,-4.95 -52.63,78.6 -115.38,146.22 -144.11,243.18 -9.61,32.45 -17.44,79.78 9.85,101.46 29.44,23.38 70.66,14.86 100.87,-0.3 30.16,-15.14 54.34,-28.3 82.17,-46.93 26.62,-17.81 50.94,-35.09 75.53,-53.56 13.11,-9.85 24.44,-18.83 37.63,-29.31 12.33,-9.81 23.65,-24 38.87,-28.07 0,24.04 7.28,44.59 34.13,47.66 16.7,1.92 22.41,-4.01 32.12,-10.06 49.46,-30.79 78.74,-70.4 115.44,-94.97 -16.25,69.73 35.87,98.42 91.72,82.17 20.88,-6.07 32.06,-16.03 46.94,-20.01z"/>
   <path class="fil0" d="M11095.63 4553.22c24.07,-16.11 42.88,-34.71 63.45,-56.09 58.97,-61.27 99.83,-115.88 181.75,-176.85 42.6,-31.7 95.8,-70.16 155.24,-83.82 77.5,-17.81 136.83,1.23 186.24,40.85 140.05,112.31 -12.44,216.84 -116.35,248.99 -137.75,42.62 -256.43,37.35 -344.4,76.35 -16.74,7.43 -30.26,9.17 -39.87,22.29 21.62,0.48 19,4.78 43.03,4.78 120.69,0 237.94,1.76 358.62,-4.76l115.43 -8.89c111.37,-12.19 347.17,-7.18 402.01,-95.24 77.3,-124.14 -94.99,-329.36 -162.93,-412.98 -113.24,-139.37 -274.22,-294.35 -453.58,-141.37 -8.32,7.1 -11.35,11.69 -19.78,18.46 -115.06,92.66 -367.07,487.84 -368.87,568.28z"/>
   <path class="fil2" d="M9991.15 12136.36c0,-66.52 100.44,-84.81 168.5,-99.25 35.37,-7.5 75.2,-15.31 109.64,-19.45 43.06,-5.17 80.65,-6.3 118.71,-15.17 3.48,41.8 41.72,93.02 -56.33,158.82 -137.67,92.39 -340.52,72.04 -340.52,-24.95zm2166.33 435.1l-27.43 0c-83.48,-6.29 -127.78,-88.83 -115.28,-180.55 18.61,-136.46 127.26,-223.81 239.41,-286.54 18.56,-10.38 27.45,-16.85 47,-24.72 20.2,-8.13 34.31,-16.44 52.59,-23.91l152.34 -67.59c0,-28.52 -13.6,-93.44 -44.11,-108.93 -34.7,-17.61 -54,3.08 -58.51,4.9 -10.07,4.06 -4.98,-1.48 -23.26,6.52l-45.91 26.12c-70.66,40.84 -145.28,94.44 -162.9,18.79 -16.08,4.3 -23.66,17.36 -49.79,36.28 -42.81,30.99 -119.11,85.59 -170.15,73.7 -7.29,-31.25 -7.68,-48.09 6.26,-75.03 18.38,-35.53 88.55,-132.13 89.37,-168.82 -30.31,7.06 -59.74,34.19 -80,53.87 -13.42,13.04 -21.92,17.08 -35.92,31.02l-103.85 87.41c-8.97,5.87 -31.73,21.18 -50.31,12.17 -15.3,-7.42 -12.02,-30.16 -12.02,-50.6 -12.77,3.41 -27.11,16.5 -38.24,23.93 -42.74,28.54 -68.05,47.8 -124.33,47.8 -24.64,-36.8 -14.34,-9.77 -14.34,-71.72 -18.3,4.26 -24.45,10.8 -53.17,13.77 -101.76,10.56 -117.77,-25.65 -142.86,-42.46 -32.7,21.89 -30.57,41.92 -84.58,87.55 -97.18,82.09 -44.56,-39.54 -44.51,-39.73 -32.09,7.48 -48.15,32.89 -99.36,22.92 -35.19,-6.85 -44.08,-35.45 -44.08,-80.3l-44.28 37c-32.3,31.45 -132.63,114.95 -132.63,15.59 -26.69,17.88 -71.38,60.65 -114.44,57.59 -58.74,-4.17 -57.12,-49.73 -81.59,-86.28 -56.34,13.13 -146.97,135.38 -189.61,164.46 -15.22,10.39 -17.09,11.53 -35.12,2.89 -18.27,-18.28 31.32,-117.63 33.47,-143.44 -18.62,9.85 -38.32,19.35 -57.3,28.76 -13.51,6.71 -46.66,20.2 -62.24,23.83 52.81,99.8 -31.73,189.48 -108.5,221.41 -45.96,19.12 -90.02,31.11 -146.76,39.71 -132.63,20.1 -240.02,-65.71 -220.35,-138.71 27.26,-101.15 245.24,-116 331.91,-122.67 23.57,-1.81 56.87,-9.3 81.55,-9.3 -33.82,-50.5 -136.8,-144.78 -174.15,-198.79 -93.16,-134.69 -69.59,-233.5 32.12,-354.44 48.04,-57.12 183.61,-162.88 245.55,-194.32 21.24,-10.78 30.78,-14.3 53.6,-22.9 37.56,-14.15 65.79,-35.15 119.79,-27.64 138.39,19.24 28.3,269.13 -26.96,345.19l-60.64 87.58c-34.94,45 -50.75,57.54 -84.11,49.76 0,-21.74 -19.27,-19.55 18.76,-43.38 7.22,-4.52 29.34,-22.96 36.38,-30.57 58.25,-63.01 126.55,-173.33 148.42,-257.99 11.06,-42.82 13.52,-85.8 -13.12,-111.91 -58.83,-57.65 -224.69,72.16 -267.04,104.28 -13.94,10.57 -23.84,20.85 -38.87,32.85 -29.5,23.55 -45.81,49.13 -64.93,68.94 -143.65,148.75 -135.44,223.02 -28.48,355.8l63.41 70.46c25.99,33.65 60.59,60.79 88.08,112.73 38.66,0 83.05,-24.87 110.01,-38.21 57.07,-28.26 40.3,-27.39 70.76,-77.46 10.43,-17.15 16.76,-31.16 27.52,-48.98 51.44,-85.17 157.31,-217.24 230.89,-275.94 31.47,-25.11 129.92,-122.39 187.18,-94.91 14.87,31 -19.97,75.35 -33.45,95.65 -62.02,93.37 -163.15,187.88 -250.07,261.52 -97.98,83 -134.12,85.8 -176.91,196.03 -5.71,14.71 -14.61,36 -17.7,49.24 15.77,-4.21 18.68,-11.19 29.93,-22.67l69.28 -74.15c25.92,-26.07 72.26,-73.78 113.76,-63.92l20 13.85c21.66,31.81 -5.43,110.54 59.93,81.56 23.98,-10.63 86.36,-60.11 104.22,-77.83 29.19,-28.95 14.29,-36.41 93.3,-88.39 18.12,-11.92 40.06,-22.7 69.06,-22.43 29.13,0.28 32.19,3.66 52.53,34.04 -11.18,48 -28.91,57.02 -14.34,119.54 47.1,22.59 111.92,-13.92 130.42,-41.71l4.81 -9.53c10.34,-21.23 109.9,-162.95 108.61,-93.18 -0.43,23.72 -41.63,70.12 -47.8,96.61 11.92,-7.99 16.06,-16.97 23.91,-28.69l33.47 0c8.15,17 2.25,16.61 18.08,29.73 51.55,42.75 140.91,37.57 173.33,-0.88 20.56,-24.37 10.78,-33.63 57.21,-33.63 0,54.29 -49.61,58.06 -32.59,104.48 12.65,34.51 113.63,-42.49 129.45,-55.43 2.92,-2.39 7.71,-6.26 10.35,-8.78 12.36,-11.78 10.44,-13.81 19.08,-28.73 9.39,-16.22 17.8,-24.01 30.14,-36.81 14.96,-15.5 19.27,-25.03 44.39,-12.97 31.09,31.09 -55.78,52.42 -62.15,129.09 86.24,-57.75 111.81,-85.48 194.02,-145.46 90.27,-65.86 111.41,-12.46 42.15,89.97 -15.79,23.35 -47.08,76.65 -49.7,108.09 44.41,9.41 110.07,-44.19 144.83,-70.32 9.71,-7.31 25.1,-17.28 32.89,-24.49 10.41,-9.65 31.46,-58.19 88.05,-79.3 97.02,-36.18 130.11,5.9 137.05,7.74 5,1.33 31.83,-1.59 46.85,-1.33 59.87,1.05 97.15,88.19 100.18,124.67 31.09,-7.24 65.3,-36.01 88.77,-50.28 15.64,-9.52 13.26,-10.71 30.77,-2.31 -11.92,17.8 -64.44,54.66 -85.2,67.81 -24.77,15.7 -25.81,12.17 -29.05,47.45 -2.32,25.23 -0.69,47.26 -3.79,67.94 -12.9,86.07 -37.02,160.45 -70.01,226.43 -56.15,112.29 -185.18,246.2 -318.38,254.98zm-100.8 -138.65c0,-71.17 17.96,-129.14 65.64,-178.22 51.06,-52.55 112.41,-103.25 178.15,-137.41 24.2,-12.58 46.44,-21.66 71.78,-33.41 12.97,-6.01 20.39,-12.39 33.41,-19.19 11.36,-5.93 21.88,-11.39 35.55,-17.04 24.69,-10.19 50.33,-25.08 74.48,-30.7 0,135.37 -61.94,273.57 -149.33,371.83 -56.68,63.72 -162.63,152.67 -254.94,123.35 -36.57,-11.61 -54.72,-42.01 -54.72,-79.2zm-793.69 -478.13zm86.06 -43.03l-86.06 43.03zm86.06 -43.03zm4.78 -4.78l-4.78 4.78zm4.78 -4.78l-4.78 4.78 4.78 -4.78zm0 0c3.27,-13.64 -0.72,-7.19 9.57,-14.34 -3.27,13.64 0.72,7.19 -9.57,14.34zm-234.28 -9.56zm-459 -47.81l459 47.81zm-459 -47.81zm1549.14 86.06l-1549.14 -86.06zm1549.14 86.06c0.57,-25.63 21.12,-50.76 40.83,-64.35 60.09,-41.42 82.1,-28.99 112.17,-26.49 -9.86,13.46 -130.17,78.76 -153,90.84zm-1544.37 -90.84l-4.78 4.78 4.78 -4.78zm329.91 105.19c1.03,-46.2 69.11,-129.09 143.44,-129.09 23.47,0 -7.84,34.26 -13.02,39.56 -14.98,15.32 -22.19,20.1 -38.14,33.59 -77.27,65.36 -44.31,32.93 -92.27,55.94zm1051.89 -148.22zm-1381.8 43.03l1381.8 -43.03zm-1381.8 43.03l51.25 -77.85c7.73,-10.33 11.91,-18.36 19.71,-28.11 7.57,-9.46 12.45,-13.24 19.98,-23.06 51.01,-66.53 69.53,-88.96 130.17,-142.37 29.63,-26.09 94.14,-93.69 127.94,-101.56 -25.2,47.63 -75.54,116.54 -113.49,154.26l-137.16 135.37c-20.46,15.8 -28.62,28.21 -47.81,43.03 -21.79,16.83 -26.81,27.7 -50.58,40.27z"/>
   <path class="fil2" d="M11568.98 9764.84l0 1228.79 253.41 0 0 -1243.14 -239.07 0c-11.02,0 -14.34,3.33 -14.34,14.35z"/>
   <path class="fil2" d="M7342.3 9764.84l0 1228.79 253.41 0 0 -1228.79c0,-11.02 -3.33,-14.35 -14.35,-14.35l-224.72 0c-11.02,0 -14.34,3.33 -14.34,14.35z"/>
   <path class="fil2" d="M14805.92 9764.84l0 1228.79 253.41 0 0 -1228.79c0,-11.02 -3.33,-14.35 -14.34,-14.35l-224.73 0c-11.01,0 -14.34,3.33 -14.34,14.35z"/>
   <g style="clip-path:url(#id0)">
    <image x="9286.28" y="5363.2" width="3411.62" height="1861.44" xlink:href="Gift Ginnie_Images\Gift Ginnie_ImgID1.png"/>
   </g>
   <g style="clip-path:url(#id1)">
    <image x="9670.77" y="3428.53" width="1367.09" height="1226.72" xlink:href="Gift Ginnie_Images\Gift Ginnie_ImgID2.png"/>
   </g>
   <path class="fil2" d="M15006.73 11792.11c0,38.53 54.76,24.32 68.61,-17.62 9.11,-27.59 -1.67,-4.19 -1.67,-25.41 -35.78,-8.33 -66.94,-3.81 -66.94,43.03z"/>
   <path class="fil2" d="M11707.64 11816.02c19.12,0 93.43,-71.72 9.56,-71.72 -26.84,0 -48.76,71.72 -9.56,71.72z"/>
  </g>
 </g>
</svg>
